<svg xmlns="http://www.w3.org/2000/svg" width="934.554" height="939.964" viewBox="0.572 2.388 934.554 939.964"><defs><clipPath id="c"><path fill="currentColor" d="M913.5 655Q870 810 726 887.5T425.5 933q-156.5-32-257-154T61 497.5q-7-159.5 100.5-278T425 71q156-30 300 44.5T913 345q44 155 .5 310Z"/></clipPath><pattern id="a" patternUnits="userSpaceOnUse" width="25" height="25" viewBox="0 0 100 100" fill="#d0bda3"><circle cx="25" cy="25" r="8.333"/><circle cx="75" cy="75" r="8.333"/></pattern><filter id="b" x="-50vw" y="-50vh" width="100vw" height="100vh"><feFlood flood-color="#fff" result="neutral-gray"/><feTurbulence type="fractalNoise" baseFrequency="2.5" numOctaves="100" stitchTiles="stitch" result="noise"/><feColorMatrix in="noise" type="saturate" values="0" result="destaturatedNoise"/><feComponentTransfer in="desaturatedNoise" result="theNoise"><feFuncA type="table" tableValues="0 0 0.5 0"/></feComponentTransfer><feBlend in="SourceGraphic" in2="theNoise" mode="soft-light" result="noisy-image"/></filter></defs><path fill="url(#a)" d="M913.5 655Q870 810 726 887.5T425.5 933q-156.5-32-257-154T61 497.5q-7-159.5 100.5-278T425 71q156-30 300 44.5T913 345q44 155 .5 310Z" transform="translate(-60 -60)"/><g filter="url(#b)" clip-path="url(#c)"><path fill="#d0bda3" d="M913.5 655Q870 810 726 887.5T425.5 933q-156.5-32-257-154T61 497.5q-7-159.5 100.5-278T425 71q156-30 300 44.5T913 345q44 155 .5 310Z"/></g></svg>